solid OpenSCAD_Model
  facet normal -2.22045e-16 0 -1
    outer loop
      vertex -120 2 2.66454e-14
      vertex -120 138 2.66454e-14
      vertex 0 2 0
    endloop
  endfacet
  facet normal -2.22045e-16 0 -1
    outer loop
      vertex 0 2 0
      vertex -120 138 2.66454e-14
      vertex 0 138 0
    endloop
  endfacet
  facet normal -1 0 2.22045e-16
    outer loop
      vertex -120 2 2
      vertex -120 138 2
      vertex -120 2 2.66454e-14
    endloop
  endfacet
  facet normal -1 0 2.22045e-16
    outer loop
      vertex -120 2 2.66454e-14
      vertex -120 138 2
      vertex -120 138 2.66454e-14
    endloop
  endfacet
  facet normal 0 -1 0
    outer loop
      vertex 0 2 0
      vertex 4.44089e-16 2 2
      vertex -120 2 2
    endloop
  endfacet
  facet normal 0 -1 0
    outer loop
      vertex -120 2 2.66454e-14
      vertex 0 2 0
      vertex -120 2 2
    endloop
  endfacet
  facet normal 1 0 -2.22045e-16
    outer loop
      vertex 0 2 0
      vertex 0 138 0
      vertex 4.44089e-16 138 2
    endloop
  endfacet
  facet normal 1 0 -2.22045e-16
    outer loop
      vertex 4.44089e-16 2 2
      vertex 0 2 0
      vertex 4.44089e-16 138 2
    endloop
  endfacet
  facet normal 0 1 0
    outer loop
      vertex -120 138 2.66454e-14
      vertex -120 138 2
      vertex 0 138 0
    endloop
  endfacet
  facet normal 0 1 0
    outer loop
      vertex 0 138 0
      vertex -120 138 2
      vertex 4.44089e-16 138 2
    endloop
  endfacet
  facet normal 2.22045e-16 0 1
    outer loop
      vertex 4.44089e-16 2 2
      vertex 4.44089e-16 138 2
      vertex -120 138 2
    endloop
  endfacet
  facet normal 2.22045e-16 0 1
    outer loop
      vertex -120 2 2
      vertex 4.44089e-16 2 2
      vertex -120 138 2
    endloop
  endfacet
endsolid OpenSCAD_Model
